<svg width="35" height="29" viewBox="0 0 35 29" fill="none" xmlns="http://www.w3.org/2000/svg">
<path d="M1.25 12.2279H33.75C34.0815 12.2279 34.3995 12.1205 34.6339 11.9294C34.8683 11.7384 35 11.4792 35 11.2089V9.17093C35 8.90067 34.8683 8.64149 34.6339 8.45039C34.3995 8.25929 34.0815 8.15194 33.75 8.15194H1.25C0.918479 8.15194 0.600537 8.25929 0.366117 8.45039C0.131696 8.64149 0 8.90067 0 9.17093L0 11.2089C0 11.4792 0.131696 11.7384 0.366117 11.9294C0.600537 12.1205 0.918479 12.2279 1.25 12.2279ZM33.75 24.4558H1.25C0.918479 24.4558 0.600537 24.5632 0.366117 24.7543C0.131696 24.9454 0 25.2045 0 25.4748L0 27.5128C0 27.783 0.131696 28.0422 0.366117 28.2333C0.600537 28.4244 0.918479 28.5318 1.25 28.5318H33.75C34.0815 28.5318 34.3995 28.4244 34.6339 28.2333C34.8683 28.0422 35 27.783 35 27.5128V25.4748C35 25.2045 34.8683 24.9454 34.6339 24.7543C34.3995 24.5632 34.0815 24.4558 33.75 24.4558ZM33.9977 2.48607e-07H13.5023C13.3707 -8.35027e-05 13.2403 0.0209943 13.1186 0.0620279C12.997 0.103062 12.8864 0.163246 12.7934 0.239138C12.7003 0.31503 12.6264 0.40514 12.5761 0.504313C12.5258 0.603487 12.4999 0.709777 12.5 0.817105V3.25886C12.4999 3.36619 12.5258 3.47248 12.5761 3.57166C12.6264 3.67083 12.7003 3.76094 12.7934 3.83683C12.8864 3.91272 12.997 3.97291 13.1186 4.01394C13.2403 4.05497 13.3707 4.07605 13.5023 4.07597H33.9977C34.1293 4.07605 34.2597 4.05497 34.3814 4.01394C34.503 3.97291 34.6136 3.91272 34.7066 3.83683C34.7997 3.76094 34.8736 3.67083 34.9239 3.57166C34.9742 3.47248 35.0001 3.36619 35 3.25886V0.817105C35.0001 0.709777 34.9742 0.603487 34.9239 0.504313C34.8736 0.40514 34.7997 0.31503 34.7066 0.239138C34.6136 0.163246 34.503 0.103062 34.3814 0.0620279C34.2597 0.0209943 34.1293 -8.35027e-05 33.9977 2.48607e-07ZM33.9977 16.3039H13.5023C13.3707 16.3038 13.2403 16.3249 13.1186 16.3659C12.997 16.4069 12.8864 16.4671 12.7934 16.543C12.7003 16.6189 12.6264 16.709 12.5761 16.8082C12.5258 16.9074 12.4999 17.0136 12.5 17.121V19.5627C12.4999 19.6701 12.5258 19.7764 12.5761 19.8755C12.6264 19.9747 12.7003 20.0648 12.7934 20.1407C12.8864 20.2166 12.997 20.2768 13.1186 20.3178C13.2403 20.3588 13.3707 20.3799 13.5023 20.3798H33.9977C34.1293 20.3799 34.2597 20.3588 34.3814 20.3178C34.503 20.2768 34.6136 20.2166 34.7066 20.1407C34.7997 20.0648 34.8736 19.9747 34.9239 19.8755C34.9742 19.7764 35.0001 19.6701 35 19.5627V17.121C35.0001 17.0136 34.9742 16.9074 34.9239 16.8082C34.8736 16.709 34.7997 16.6189 34.7066 16.543C34.6136 16.4671 34.503 16.4069 34.3814 16.3659C34.2597 16.3249 34.1293 16.3038 33.9977 16.3039Z" fill="black"/>
</svg>
