<svg width="22" height="21" viewBox="0 0 22 21" fill="none" xmlns="http://www.w3.org/2000/svg">
<path d="M12.5946 2.73759L12.5942 2.73808L11.7477 3.68964L11.0005 4.52955L10.2534 3.68964L9.40689 2.73808L9.4058 2.73686C7.56851 0.664667 4.70479 0.413857 2.81752 2.1678L12.5946 2.73759ZM12.5946 2.73759C14.4368 0.664048 17.2967 0.414222 19.1835 2.1678C21.4737 4.30016 21.6067 8.18871 19.5384 10.5171L19.5382 10.5174M12.5946 2.73759L19.5382 10.5174M19.5382 10.5174L11.224 19.8828C11.1396 19.9777 11.0567 20.0004 10.9984 20.0004C10.9401 20.0004 10.8571 19.9777 10.7728 19.8828L2.45891 10.5178M19.5382 10.5174L2.45891 10.5178M2.45891 10.5178C0.394243 8.18929 0.527281 4.30042 2.81734 2.16797L2.45891 10.5178Z" stroke="#FF5652" stroke-width="2"/>
</svg>
