<svg width="38" height="36" viewBox="0 0 38 36" fill="none" xmlns="http://www.w3.org/2000/svg">
<path d="M37.4832 31.1243L30.0831 24.1148C29.7491 23.7985 29.2963 23.6227 28.8212 23.6227H27.6114C29.66 21.1409 30.8773 18.0193 30.8773 14.6236C30.8773 6.54545 23.967 0 15.4386 0C6.91027 0 0 6.54545 0 14.6236C0 22.7017 6.91027 29.2471 15.4386 29.2471C19.0237 29.2471 22.3192 28.0941 24.9393 26.1537V27.2997C24.9393 27.7496 25.1249 28.1785 25.4589 28.4949L32.859 35.5043C33.5568 36.1652 34.685 36.1652 35.3752 35.5043L37.4758 33.5147C38.1735 32.8538 38.1735 31.7852 37.4832 31.1243ZM15.4386 23.6227C10.191 23.6227 5.93793 19.6012 5.93793 14.6236C5.93793 9.65296 10.1836 5.62445 15.4386 5.62445C20.6863 5.62445 24.9393 9.64593 24.9393 14.6236C24.9393 19.5942 20.6937 23.6227 15.4386 23.6227Z" fill="#333333" fill-opacity="0.5"/>
</svg>
