<svg width="92" height="20" viewBox="0 0 92 20" fill="none" xmlns="http://www.w3.org/2000/svg">
<path d="M6.05 10.5C7.56628 10.5 8.8 9.4719 8.8 8.20833C8.8 6.94477 7.56628 5.91667 6.05 5.91667C4.53372 5.91667 3.3 6.94477 3.3 8.20833C3.3 9.4719 4.53372 10.5 6.05 10.5ZM18.15 6.83333H10.45C10.1461 6.83333 9.9 7.03844 9.9 7.29167V11.4167H2.2V5.45833C2.2 5.2051 1.95388 5 1.65 5H0.55C0.246125 5 0 5.2051 0 5.45833V15.5417C0 15.7949 0.246125 16 0.55 16H1.65C1.95388 16 2.2 15.7949 2.2 15.5417V14.1667H19.8V15.5417C19.8 15.7949 20.0461 16 20.35 16H21.45C21.7539 16 22 15.7949 22 15.5417V10.0417C22 8.26964 20.2764 6.83333 18.15 6.83333Z" fill="black"/>
<path d="M36.3759 7.096H32.1639V9.319C32.3459 9.09367 32.6059 8.91167 32.9439 8.773C33.2819 8.62567 33.6416 8.552 34.0229 8.552C34.7162 8.552 35.2839 8.70367 35.7259 9.007C36.1679 9.31033 36.4886 9.70033 36.6879 10.177C36.8872 10.645 36.9869 11.1477 36.9869 11.685C36.9869 12.6817 36.7009 13.4833 36.1289 14.09C35.5656 14.6967 34.7596 15 33.7109 15C32.7229 15 31.9342 14.753 31.3449 14.259C30.7556 13.765 30.4219 13.1193 30.3439 12.322H32.1119C32.1899 12.6687 32.3632 12.946 32.6319 13.154C32.9092 13.362 33.2602 13.466 33.6849 13.466C34.1962 13.466 34.5819 13.3057 34.8419 12.985C35.1019 12.6643 35.2319 12.2397 35.2319 11.711C35.2319 11.1737 35.0976 10.7663 34.8289 10.489C34.5689 10.203 34.1832 10.06 33.6719 10.06C33.3079 10.06 33.0046 10.151 32.7619 10.333C32.5192 10.515 32.3459 10.7577 32.2419 11.061H30.4999V5.497H36.3759V7.096Z" fill="black"/>
<path d="M84.8239 8.019C84.8672 7.15233 85.1706 6.485 85.7339 6.017C86.3059 5.54033 87.0556 5.302 87.9829 5.302C88.6156 5.302 89.1572 5.41467 89.6079 5.64C90.0586 5.85667 90.3966 6.15567 90.6219 6.537C90.8559 6.90967 90.9729 7.33433 90.9729 7.811C90.9729 8.357 90.8299 8.82067 90.5439 9.202C90.2666 9.57467 89.9329 9.826 89.5429 9.956V10.008C90.0456 10.164 90.4356 10.4413 90.7129 10.84C90.9989 11.2387 91.1419 11.75 91.1419 12.374C91.1419 12.894 91.0206 13.3577 90.7779 13.765C90.5439 14.1723 90.1929 14.493 89.7249 14.727C89.2656 14.9523 88.7109 15.065 88.0609 15.065C87.0816 15.065 86.2842 14.818 85.6689 14.324C85.0536 13.83 84.7286 13.102 84.6939 12.14H86.4619C86.4792 12.5647 86.6222 12.907 86.8909 13.167C87.1682 13.4183 87.5452 13.544 88.0219 13.544C88.4639 13.544 88.8019 13.4227 89.0359 13.18C89.2786 12.9287 89.3999 12.608 89.3999 12.218C89.3999 11.698 89.2352 11.3253 88.9059 11.1C88.5766 10.8747 88.0652 10.762 87.3719 10.762H86.9949V9.267H87.3719C88.6026 9.267 89.2179 8.85533 89.2179 8.032C89.2179 7.65933 89.1052 7.369 88.8799 7.161C88.6632 6.953 88.3469 6.849 87.9309 6.849C87.5236 6.849 87.2072 6.96167 86.9819 7.187C86.7652 7.40367 86.6396 7.681 86.6049 8.019H84.8239Z" fill="black"/>
<path d="M76.9688 9.5H59.4375V5.96429C59.4375 5.53104 60.0543 5.17857 60.8125 5.17857C61.3002 5.17857 61.7291 5.32454 61.9733 5.54393C61.2647 6.16285 61.3422 7.00673 62.2671 7.58273C62.0877 7.69846 62.0943 7.87531 62.2882 7.9861L62.7744 8.2639C62.9757 8.37896 63.3022 8.37896 63.5036 8.2639L67.5869 5.9306C67.7883 5.81554 67.7883 5.62898 67.5869 5.5139L67.1008 5.2361C66.9069 5.12531 66.5974 5.12153 66.3949 5.22404C65.6236 4.81967 64.5776 4.69789 63.6372 4.84678C63.016 4.33557 61.9818 4 60.8125 4C58.9171 4 57.375 4.88118 57.375 5.96429V9.5H57.0312C56.4617 9.5 56 9.76383 56 10.0893V10.4821C56 10.8076 56.4617 11.0714 57.0312 11.0714H57.375V11.8571C57.375 12.5552 57.9062 13.1823 58.75 13.6139V14.4107C58.75 14.7362 59.2117 15 59.7812 15H60.4688C61.0383 15 61.5 14.7362 61.5 14.4107V14.2143H72.5V14.4107C72.5 14.7362 72.9617 15 73.5312 15H74.2188C74.7883 15 75.25 14.7362 75.25 14.4107V13.6139C76.0938 13.1823 76.625 12.5552 76.625 11.8571V11.0714H76.9688C77.5383 11.0714 78 10.8076 78 10.4821V10.0893C78 9.76383 77.5383 9.5 76.9688 9.5Z" fill="black"/>
</svg>
